<svg xmlns="http://www.w3.org/2000/svg" viewBox="0 0 500 500">
  <g id="freepik--background-complete--inject-54">
    <polygon points="215.07 391.74 36.34 391.74 59.51 334.77 71.75 328.06 91.02 283.51 106.6 274.36 121.42 247.56 136.04 247.56 168.54 302.43 185.08 310.97 215.07 391.74" style="fill:#ebebeb"></polygon>
    <polygon points="36.34 391.74 113.43 391.74 113.43 347.28 133.21 316.16 123.79 283.51 136.04 247.56 121.42 247.56 106.6 274.36 91.02 283.51 71.75 328.06 59.51 334.77 36.34 391.74" style="fill:#dbdbdb"></polygon>
    <polygon points="136.04 391.74 143.51 368.33 155.59 356.43 160.99 342.4 164.75 345.45 164.75 358.87 155.59 369.55 155.59 391.82 136.04 391.74" style="fill:#dbdbdb"></polygon>
    <polygon points="150.4 319.65 152.4 310.26 157.79 304.87 160.31 308.07 156.95 312.26 158.46 321.19 150.4 319.65" style="fill:#dbdbdb"></polygon>
    <polygon points="202.21 391.69 463.66 391.69 414.33 288.67 390.6 278.49 365.41 229.27 348.8 211.41 334.16 178.82 317.02 181.6 287.71 249.88 271.34 262.09 244.76 332.42 218.58 357.85 202.21 391.69" style="fill:#ebebeb"></polygon>
    <polygon points="334.16 178.82 336.17 230.16 316.87 257.13 325.92 277.76 308 323.26 323.62 360.9 314.37 391.69 202.21 391.69 218.58 357.85 244.76 332.42 271.34 262.09 287.71 249.88 317.02 181.6 334.16 178.82" style="fill:#dbdbdb"></polygon>
    <polygon points="329.34 310.03 342.8 286.63 341.74 276.71 346.76 269.59 352.83 289.81 334.62 310.03 329.34 310.03" style="fill:#dbdbdb"></polygon>
    <polygon points="318.78 138.02 319.73 139.96 321.87 140.27 320.32 141.77 320.69 143.9 318.78 142.9 316.87 143.9 317.23 141.77 315.69 140.27 317.82 139.96 318.78 138.02" style="fill:#dbdbdb"></polygon>
    <polygon points="139.27 234.81 140.23 236.74 142.36 237.05 140.82 238.56 141.18 240.69 139.27 239.68 137.36 240.69 137.72 238.56 136.18 237.05 138.31 236.74 139.27 234.81" style="fill:#dbdbdb"></polygon>
    <polygon points="388.67 67.08 389.63 69.01 391.76 69.32 390.22 70.83 390.58 72.95 388.67 71.95 386.76 72.95 387.13 70.83 385.58 69.32 387.72 69.01 388.67 67.08" style="fill:#dbdbdb"></polygon>
    <polygon points="174.18 70.02 175.14 71.95 177.27 72.26 175.73 73.77 176.09 75.89 174.18 74.89 172.27 75.89 172.64 73.77 171.09 72.26 173.23 71.95 174.18 70.02" style="fill:#dbdbdb"></polygon>
    <polygon points="446.15 228.93 447.11 230.86 449.25 231.17 447.7 232.68 448.06 234.81 446.15 233.8 444.24 234.81 444.61 232.68 443.06 231.17 445.2 230.86 446.15 228.93" style="fill:#dbdbdb"></polygon>
    <polygon points="235.71 134.69 236.66 136.63 238.8 136.94 237.25 138.44 237.62 140.57 235.71 139.57 233.79 140.57 234.16 138.44 232.61 136.94 234.75 136.63 235.71 134.69" style="fill:#dbdbdb"></polygon>
    <polygon points="45.44 94.84 46.39 96.77 48.52 97.08 46.98 98.59 47.34 100.72 45.44 99.71 43.52 100.72 43.89 98.59 42.34 97.08 44.48 96.77 45.44 94.84" style="fill:#dbdbdb"></polygon>
    <polygon points="86.65 210.39 87.6 212.32 89.74 212.63 88.19 214.14 88.56 216.27 86.65 215.26 84.74 216.27 85.1 214.14 83.56 212.63 85.69 212.32 86.65 210.39" style="fill:#dbdbdb"></polygon>
    <polygon points="45.44 243.33 46.02 244.53 47.34 244.72 46.39 245.65 46.62 246.97 45.44 246.34 44.25 246.97 44.48 245.65 43.52 244.72 44.84 244.53 45.44 243.33" style="fill:#dbdbdb"></polygon>
    <polygon points="179.72 121.92 180.31 123.12 181.63 123.31 180.68 124.24 180.91 125.56 179.72 124.94 178.54 125.56 178.77 124.24 177.81 123.31 179.13 123.12 179.72 121.92" style="fill:#dbdbdb"></polygon>
    <polygon points="278.94 228.23 279.53 229.43 280.85 229.62 279.9 230.55 280.12 231.87 278.94 231.25 277.76 231.87 277.99 230.55 277.03 229.62 278.35 229.43 278.94 228.23" style="fill:#dbdbdb"></polygon>
    <polygon points="55.8 105.2 56.4 106.4 57.72 106.59 56.76 107.52 56.99 108.84 55.8 108.22 54.62 108.84 54.85 107.52 53.9 106.59 55.22 106.4 55.8 105.2" style="fill:#dbdbdb"></polygon>
    <polygon points="391.76 211.51 392.35 212.71 393.67 212.9 392.72 213.83 392.94 215.15 391.76 214.53 390.58 215.15 390.81 213.83 389.85 212.9 391.17 212.71 391.76 211.51" style="fill:#dbdbdb"></polygon>
    <polygon points="94.62 267.77 95.21 268.97 96.53 269.16 95.58 270.09 95.8 271.41 94.62 270.79 93.44 271.41 93.67 270.09 92.71 269.16 94.03 268.97 94.62 267.77" style="fill:#dbdbdb"></polygon>
    <polygon points="71.7 203.94 72.29 205.13 73.61 205.33 72.66 206.26 72.88 207.57 71.7 206.95 70.52 207.57 70.75 206.26 69.79 205.33 71.11 205.13 71.7 203.94" style="fill:#dbdbdb"></polygon>
    <polygon points="265.48 112.66 266.07 113.85 267.39 114.04 266.43 114.97 266.66 116.29 265.48 115.67 264.3 116.29 264.52 114.97 263.56 114.04 264.88 113.85 265.48 112.66" style="fill:#dbdbdb"></polygon>
    <polygon points="396.44 267.77 397.03 268.97 398.35 269.16 397.39 270.09 397.62 271.41 396.44 270.79 395.26 271.41 395.49 270.09 394.53 269.16 395.85 268.97 396.44 267.77" style="fill:#dbdbdb"></polygon>
    <polygon points="455.75 153.62 456.34 154.82 457.66 155.01 456.7 155.94 456.93 157.26 455.75 156.64 454.57 157.26 454.79 155.94 453.84 155.01 455.16 154.82 455.75 153.62" style="fill:#dbdbdb"></polygon>
    <polygon points="403.62 151.81 404.21 153 405.53 153.19 404.57 154.13 404.8 155.44 403.62 154.82 402.44 155.44 402.66 154.13 401.71 153.19 403.03 153 403.62 151.81" style="fill:#dbdbdb"></polygon>
    <path d="M365.35,99.4a26.34,26.34,0,1,1-28.7-38.78,24.64,24.64,0,1,0,28.7,38.78Z" style="fill:#dbdbdb"></path>
  </g>
  <g id="freepik--Floor--inject-54">
    <polygon points="36.15 391.73 89.61 391.48 143.07 391.4 250 391.23 356.93 391.39 410.39 391.48 463.85 391.73 410.39 391.97 356.93 392.06 250 392.23 143.07 392.06 89.61 391.97 36.15 391.73" style="fill:#263238"></polygon>
    <path d="M469.37,400.69H30.63a4.48,4.48,0,0,1-4.48-4.48h0a4.47,4.47,0,0,1,4.48-4.48H469.37a4.48,4.48,0,0,1,4.48,4.48h0A4.49,4.49,0,0,1,469.37,400.69Z" style="fill:#455a64"></path>
    <rect x="99.1" y="409.55" width="285.53" height="8.96" rx="4.48" style="fill:#455a64"></rect>
    <path d="M355.31,436.23H153.82a4.47,4.47,0,0,1-4.48-4.48h0a4.48,4.48,0,0,1,4.48-4.48H355.31a4.48,4.48,0,0,1,4.48,4.48h0A4.47,4.47,0,0,1,355.31,436.23Z" style="fill:#455a64"></path>
    <rect x="59.38" y="409.55" width="30.01" height="8.96" rx="4.48" style="fill:#455a64"></rect>
    <path d="M390.13,436.23H379.6a4.48,4.48,0,0,1-4.48-4.48h0a4.49,4.49,0,0,1,4.48-4.48h10.53a4.49,4.49,0,0,1,4.48,4.48h0A4.48,4.48,0,0,1,390.13,436.23Z" style="fill:#455a64"></path>
    <path d="M233.48,409.64H117.59a4.48,4.48,0,1,0,0-9H233.48a4.48,4.48,0,0,0,0,9Z" style="fill:#455a64"></path>
    <path d="M353.83,409.64h-76a4.48,4.48,0,1,0,0-9h76a4.48,4.48,0,0,0,0,9Z" style="fill:#455a64"></path>
    <path d="M296.34,427.37H179.73a4.48,4.48,0,0,0,0-9H296.34a4.48,4.48,0,1,0,0,9Z" style="fill:#455a64"></path>
  </g>
  <g id="freepik--Mountains--inject-54">
    <polygon points="66.13 391.65 345.14 391.65 294.21 266.09 269.71 253.69 243.71 193.71 226.55 171.94 211.44 132.22 193.74 135.61 163.48 218.82 146.59 233.7 110.06 319.41 83.03 350.4 66.13 391.65" style="fill:#455a64"></polygon>
    <polygon points="211.44 132.22 213.51 194.79 193.59 227.65 202.93 252.8 184.43 308.25 200.56 354.13 191.01 391.65 66.13 391.65 83.03 350.4 110.06 319.41 146.59 233.7 163.48 218.82 193.74 135.61 211.44 132.22" style="fill:#37474f"></polygon>
    <polygon points="206.46 292.13 220.36 263.61 219.27 251.52 224.45 242.84 230.72 267.49 211.91 292.13 206.46 292.13" style="fill:#37474f"></polygon>
    <polygon points="433.87 391.67 227.28 391.67 254.56 324.64 273.85 309.17 293.74 251.45 309.83 239.59 325.12 204.87 340.22 204.87 373.77 275.96 390.85 287.03 433.87 391.67" style="fill:#37474f"></polygon>
    <polygon points="227.28 391.67 316.88 391.67 316.88 334.07 337.3 293.75 327.57 251.45 340.22 204.87 325.12 204.87 309.83 239.59 293.74 251.45 273.85 309.17 254.56 324.64 227.28 391.67" style="fill:#263238"></polygon>
    <polygon points="340.22 391.67 347.93 361.35 360.41 345.93 365.97 327.75 369.86 331.7 369.86 349.09 360.41 362.93 360.41 391.78 340.22 391.67" style="fill:#263238"></polygon>
    <polygon points="355.04 298.27 357.11 286.1 362.67 279.12 365.28 283.27 361.8 288.69 363.37 300.27 355.04 298.27" style="fill:#263238"></polygon>
  </g>
  <g id="freepik--Trees--inject-54">
    <path d="M78.68,391.42c-1.14,1.15-14.5,1.66-19.36,1.66S41.1,392.57,40,391.42s15-90,19.37-90S79.83,390.27,78.68,391.42Z" style="fill:#263238"></path>
    <path d="M79,368.79c-3.3,1.26-15.53,6.24-18.17,7.69,0-.56,0-1.11,0-1.67,2.95-1.74,5.92-3.45,8.87-5.18A101.68,101.68,0,0,0,79.19,364c.14-.11.06-.4-.14-.32a78.58,78.58,0,0,0-9.33,5.16c-3,1.76-6,3.58-8.95,5.41q0-6.39-.05-12.77a101.93,101.93,0,0,0,13.94-7.08c.15-.09,0-.37-.13-.3a101.8,101.8,0,0,0-13.82,6.81c0-2.21,0-4.43,0-6.64-.13-11.4-.15-22.8-.44-34.2,2.9-1.46,5.89-2.75,8.79-4.22.19-.1,0-.43-.15-.35-2.94,1.14-5.77,2.51-8.66,3.77-.16-5.88-.38-11.75-.74-17.63a.15.15,0,0,0-.3,0c-.41,10.92-.38,21.85-.24,32.78-3-2.4-6.21-4.52-9.26-6.85-.12-.09-.24.11-.12.2,3.2,2.43,6.19,5.13,9.39,7.55l0,1.85c-3.26-1.49-6.57-2.87-9.86-4.28-.26-.11-.49.26-.22.38,3.35,1.61,6.69,3.25,10.09,4.77.07,5.41.17,10.82.24,16.23.12,9.45.33,18.9.53,28.35q-9.22-4.66-18.58-9.08c-.24-.11-.45.22-.21.36a194.18,194.18,0,0,0,18.8,9.44c.17,7.85.33.71.43,8.56a.38.38,0,0,0,.75,0c-.11-10-.13-5-.16-15,3.24-.8,15.49-6.05,18.4-7.49C79.48,369.19,79.27,368.67,79,368.79Z" style="fill:#37474f"></path>
    <path d="M178.67,391.35c-1,1-12.45,1.42-16.62,1.42s-15.64-.44-16.62-1.42,12.9-77.2,16.62-77.2S179.65,390.36,178.67,391.35Z" style="fill:#263238"></path>
    <path d="M178.9,371.93c-2.83,1.08-13.33,5.35-15.59,6.6,0-.48,0-1,0-1.44,2.53-1.49,5.07-3,7.61-4.44a87.44,87.44,0,0,0,8.19-4.87c.13-.09.06-.34-.11-.27a67.38,67.38,0,0,0-8,4.43c-2.58,1.51-5.13,3.07-7.67,4.64,0-3.65,0-7.31-.05-11a86.67,86.67,0,0,0,12-6.08c.13-.07,0-.32-.11-.25a88,88,0,0,0-11.85,5.84c0-1.9,0-3.8,0-5.7-.11-9.78-.13-19.57-.38-29.35,2.49-1.25,5.06-2.36,7.54-3.62.17-.08,0-.37-.12-.3-2.53,1-5,2.15-7.44,3.24-.13-5-.32-10.09-.63-15.13a.13.13,0,0,0-.26,0c-.35,9.37-.32,18.75-.2,28.12-2.58-2.05-5.33-3.87-7.95-5.87-.1-.08-.2.1-.1.17,2.74,2.09,5.31,4.4,8.06,6.48,0,.53,0,1.06,0,1.59-2.8-1.28-5.63-2.47-8.46-3.68-.22-.09-.42.23-.19.33,2.88,1.39,5.74,2.79,8.66,4.09.06,4.65.14,9.29.2,13.93.11,8.11.29,16.22.46,24.33q-7.92-4-15.94-7.79c-.21-.09-.39.19-.18.31a164.19,164.19,0,0,0,16.13,8.1c.15,6.74.29,1.65.37,8.39a.32.32,0,0,0,.64,0c-.1-8.59-.11-5.36-.13-13.95,2.78-.69,13.29-5.19,15.79-6.43C179.35,372.27,179.17,371.82,178.9,371.93Z" style="fill:#37474f"></path>
    <path d="M70.36,391.75c.83.83,10.48,1.2,14,1.2s13.17-.37,14-1.2-10.86-65-14-65S69.53,390.92,70.36,391.75Z" style="fill:#263238"></path>
    <path d="M70.16,375.39c2.39.91,11.23,4.51,13.14,5.56v-1.2c-2.13-1.26-4.27-2.5-6.41-3.74a78.32,78.32,0,0,1-6.9-4.1c-.1-.08,0-.3.1-.24a58.38,58.38,0,0,1,6.75,3.73c2.17,1.28,4.32,2.59,6.46,3.91,0-3.07,0-6.15,0-9.22A75,75,0,0,1,73.27,365c-.11-.07,0-.27.09-.22a74,74,0,0,1,10,4.92c0-1.6,0-3.2,0-4.8.09-8.23.1-16.48.31-24.71-2.09-1.06-4.25-2-6.34-3.05-.14-.07,0-.31.1-.26,2.13.83,4.17,1.82,6.26,2.73q.17-6.37.53-12.74a.11.11,0,0,1,.22,0c.3,7.89.27,15.79.17,23.69,2.17-1.74,4.49-3.27,6.7-4.95.08-.07.17.08.08.14-2.31,1.76-4.47,3.71-6.78,5.46,0,.45,0,.89,0,1.34,2.35-1.08,4.74-2.08,7.12-3.1.19-.08.35.19.16.28-2.42,1.16-4.84,2.35-7.29,3.44-.06,3.91-.12,7.83-.17,11.73-.09,6.83-.24,13.66-.39,20.49,4.44-2.25,8.93-4.44,13.43-6.56.17-.08.32.16.15.26A138,138,0,0,1,84,385.88c-.12,5.68-.24,1.26-.31,6.94a.27.27,0,0,1-.53,0c.07-7.24.09-4.39.11-11.62A132.17,132.17,0,0,1,70,375.79C69.78,375.68,69.93,375.31,70.16,375.39Z" style="fill:#455a64"></path>
    <path d="M424.77,391.22c-1.06,1.06-13.39,1.53-17.87,1.53s-16.82-.47-17.88-1.53,13.88-83,17.88-83S425.83,390.16,424.77,391.22Z" style="fill:#263238"></path>
    <path d="M425,370.33c-3,1.16-14.33,5.76-16.77,7.1,0-.51,0-1,0-1.54l8.19-4.78a95,95,0,0,0,8.81-5.23c.13-.1.06-.37-.13-.3a75.36,75.36,0,0,0-8.62,4.76c-2.77,1.63-5.51,3.31-8.25,5,0-3.93,0-7.86-.05-11.79A93.52,93.52,0,0,0,421.05,357c.14-.09.05-.35-.11-.28A94.22,94.22,0,0,0,408.19,363c0-2,0-4.08-.05-6.12-.11-10.52-.13-21-.4-31.57,2.68-1.35,5.44-2.54,8.11-3.89.17-.09,0-.4-.14-.33-2.71,1.06-5.32,2.32-8,3.49-.14-5.43-.35-10.85-.68-16.27a.14.14,0,0,0-.28,0c-.38,10.08-.34,20.16-.22,30.24-2.77-2.21-5.73-4.17-8.55-6.31-.11-.09-.21.1-.1.18,2.94,2.25,5.7,4.73,8.66,7,0,.57,0,1.14,0,1.71-3-1.37-6.05-2.65-9.09-3.95-.24-.11-.45.23-.21.35,3.1,1.48,6.18,3,9.32,4.4q.11,7.49.22,15c.11,8.72.3,17.44.49,26.16q-8.52-4.31-17.15-8.38c-.22-.1-.41.21-.19.33a180.28,180.28,0,0,0,17.35,8.72c.16,7.24.31,1.77.4,9a.34.34,0,0,0,.68,0c-.1-9.24-.11-5.77-.14-15,3-.74,14.3-5.58,17-6.9C425.51,370.7,425.31,370.22,425,370.33Z" style="fill:#455a64"></path>
    <path d="M373.77,391.22c-1.06,1.06-13.39,1.53-17.88,1.53s-16.81-.47-17.87-1.53,13.87-83,17.87-83S374.82,390.16,373.77,391.22Z" style="fill:#263238"></path>
    <path d="M374,370.33c-3,1.16-14.33,5.76-16.77,7.1v-1.54q4.08-2.4,8.18-4.78a95,95,0,0,0,8.81-5.23c.13-.1.06-.37-.12-.3a74.52,74.52,0,0,0-8.62,4.76c-2.78,1.63-5.52,3.31-8.26,5,0-3.93,0-7.86-.05-11.79A94.21,94.21,0,0,0,370.05,357c.14-.09,0-.35-.12-.28A94.8,94.8,0,0,0,357.18,363q0-3.06,0-6.12c-.12-10.52-.14-21-.4-31.57,2.67-1.35,5.43-2.54,8.1-3.89.18-.09.06-.4-.13-.33-2.72,1.06-5.33,2.32-8,3.49-.15-5.43-.36-10.85-.69-16.27a.14.14,0,0,0-.28,0c-.37,10.08-.34,20.16-.21,30.24-2.78-2.21-5.73-4.17-8.55-6.31-.11-.09-.22.1-.11.18,2.95,2.25,5.71,4.73,8.67,7,0,.57,0,1.14,0,1.71-3-1.37-6.06-2.65-9.1-3.95-.23-.11-.45.23-.2.35,3.09,1.48,6.18,3,9.31,4.4.07,5,.16,10,.22,15,.11,8.72.31,17.44.49,26.16q-8.51-4.31-17.15-8.38c-.22-.1-.41.21-.19.33a180.45,180.45,0,0,0,17.36,8.72c.15,7.24.3,1.77.39,9a.35.35,0,0,0,.69,0c-.1-9.24-.12-5.77-.15-15,3-.74,14.3-5.58,17-6.9C374.5,370.7,374.31,370.22,374,370.33Z" style="fill:#455a64"></path>
    <path d="M367.19,392c.74.74,9.36,1.07,12.49,1.07s11.76-.33,12.5-1.07-9.7-58-12.5-58S366.45,391.27,367.19,392Z" style="fill:#263238"></path>
    <path d="M367,377.41c2.13.81,10,4,11.72,5v-1.08c-1.9-1.12-3.81-2.22-5.72-3.33a69.18,69.18,0,0,1-6.15-3.66c-.1-.07,0-.26.08-.21a52.08,52.08,0,0,1,6,3.33c1.94,1.14,3.85,2.31,5.77,3.49,0-2.75,0-5.49,0-8.24a65.44,65.44,0,0,1-9-4.57c-.1-.05,0-.24.08-.19a66.33,66.33,0,0,1,8.91,4.39l0-4.28c.08-7.35.1-14.71.28-22.06-1.87-.94-3.79-1.77-5.66-2.72-.12-.06,0-.28.09-.23,1.9.74,3.73,1.62,5.59,2.44.1-3.79.24-7.58.48-11.37a.1.1,0,0,1,.19,0c.26,7,.24,14.09.15,21.14,1.94-1.55,4-2.92,6-4.42.07-.06.15.07.07.13-2.06,1.57-4,3.31-6.05,4.87,0,.4,0,.8,0,1.19,2.1-1,4.23-1.85,6.36-2.76.16-.07.31.17.14.25-2.16,1-4.32,2.09-6.51,3.07,0,3.49-.11,7-.15,10.47-.08,6.1-.21,12.19-.35,18.28,4-2,8-4,12-5.85.15-.07.29.15.13.23a122.54,122.54,0,0,1-12.12,6.09c-.11,5.07-.22,1-.28,6.08a.24.24,0,0,1-.48,0c.07-6.46.08-3.8.1-10.26a119.37,119.37,0,0,1-11.87-4.83C366.68,377.67,366.81,377.33,367,377.41Z" style="fill:#37474f"></path>
    <path d="M127.52,391.89c.74.74,9.36,1.07,12.5,1.07s11.75-.33,12.49-1.07-9.7-58-12.49-58S126.78,391.15,127.52,391.89Z" style="fill:#263238"></path>
    <path d="M127.35,377.3c2.13.81,10,4,11.72,5,0-.36,0-.72,0-1.08l-5.72-3.34a65.71,65.71,0,0,1-6.16-3.66c-.09-.07,0-.26.09-.2a50.42,50.42,0,0,1,6,3.32c1.94,1.14,3.86,2.31,5.77,3.49,0-2.74,0-5.49,0-8.23a66.58,66.58,0,0,1-9-4.57c-.1-.06,0-.24.08-.19a66.33,66.33,0,0,1,8.91,4.39c0-1.43,0-2.86,0-4.28.07-7.35.09-14.71.28-22.06-1.87-1-3.8-1.78-5.67-2.73-.12-.06,0-.27.09-.22,1.9.74,3.73,1.62,5.59,2.44.1-3.8.25-7.59.48-11.37a.1.1,0,1,1,.19,0c.27,7,.24,14.08.16,21.13,1.93-1.55,4-2.91,6-4.41.08-.06.15.07.07.12-2.06,1.57-4,3.31-6.05,4.88,0,.39,0,.79,0,1.19,2.1-1,4.23-1.85,6.36-2.76.16-.08.31.16.14.24-2.16,1-4.32,2.1-6.51,3.08l-.15,10.47c-.08,6.09-.21,12.18-.34,18.28q5.94-3,12-5.85c.15-.08.29.14.14.23a128.42,128.42,0,0,1-12.13,6.09c-.11,5.06-.22,1.12-.28,6.19a.24.24,0,0,1-.48,0c.07-6.46.08-3.92.1-10.38a119.31,119.31,0,0,1-11.87-4.82C127,377.55,127.15,377.22,127.35,377.3Z" style="fill:#37474f"></path>
    <path d="M201.72,391.78c.74.74,9.36,1.07,12.49,1.07s11.76-.33,12.5-1.07-9.7-58-12.5-58S201,391,201.72,391.78Z" style="fill:#263238"></path>
    <path d="M201.55,377.18c2.13.81,10,4,11.72,5v-1.08c-1.9-1.12-3.81-2.22-5.72-3.33s-4.24-2.26-6.15-3.66c-.1-.07,0-.26.08-.21a52.08,52.08,0,0,1,6,3.33c1.94,1.14,3.85,2.31,5.77,3.49,0-2.75,0-5.49,0-8.24a65.44,65.44,0,0,1-9-4.57c-.1-.06,0-.24.08-.19a66.33,66.33,0,0,1,8.91,4.39l0-4.28c.08-7.35.1-14.71.28-22.06-1.87-.94-3.79-1.77-5.66-2.72-.12-.06,0-.28.09-.23,1.9.74,3.73,1.62,5.59,2.44.1-3.79.25-7.58.48-11.37a.1.1,0,0,1,.19,0c.26,7,.24,14.09.15,21.14,1.94-1.55,4-2.92,6-4.42.08-.06.15.07.07.13-2.06,1.57-4,3.31-6,4.87,0,.4,0,.8,0,1.19,2.1-1,4.23-1.85,6.36-2.76.16-.07.31.17.14.25-2.16,1-4.32,2.09-6.51,3.07-.05,3.49-.11,7-.15,10.47-.08,6.1-.21,12.19-.34,18.28,4-2,8-4,12-5.85.15-.07.29.14.13.23a124.76,124.76,0,0,1-12.12,6.09c-.11,5.07-.22,1.24-.28,6.31a.24.24,0,0,1-.48,0c.07-6.46.08-4,.1-10.49a119.37,119.37,0,0,1-11.87-4.83C201.21,377.44,201.34,377.1,201.55,377.18Z" style="fill:#37474f"></path>
    <path d="M435.09,391.78c.74.74,9.36,1.07,12.49,1.07s11.75-.33,12.49-1.07-9.7-58-12.49-58S434.35,391,435.09,391.78Z" style="fill:#263238"></path>
    <path d="M434.92,377.18c2.12.81,10,4,11.72,5v-1.08c-1.9-1.12-3.81-2.22-5.72-3.33a70.34,70.34,0,0,1-6.16-3.66c-.09-.07,0-.26.09-.21a51.14,51.14,0,0,1,6,3.33c1.94,1.14,3.86,2.31,5.77,3.49,0-2.75,0-5.49,0-8.24a64.32,64.32,0,0,1-9-4.57c-.1-.06,0-.24.08-.19a66.33,66.33,0,0,1,8.91,4.39c0-1.42,0-2.85,0-4.28.08-7.35.09-14.71.28-22.06-1.87-.94-3.8-1.77-5.67-2.72-.12-.06,0-.28.1-.23,1.9.74,3.72,1.62,5.58,2.44.11-3.79.25-7.58.48-11.37a.1.1,0,0,1,.2,0c.26,7,.24,14.09.15,21.14,1.94-1.55,4-2.92,6-4.42.08-.06.15.07.08.13-2.06,1.57-4,3.31-6.06,4.87,0,.4,0,.8,0,1.19,2.1-1,4.23-1.85,6.35-2.76.17-.07.32.17.15.25-2.17,1-4.32,2.09-6.51,3.07-.05,3.49-.11,7-.16,10.47-.07,6.1-.21,12.19-.34,18.28,4-2,8-4,12-5.85a.13.13,0,0,1,.13.23,124.92,124.92,0,0,1-12.13,6.09c-.11,5.07-.21,1.24-.28,6.31,0,.3-.48.3-.47,0,.07-6.46.08-4,.1-10.49a117.44,117.44,0,0,1-11.87-4.83C434.57,377.44,434.71,377.1,434.92,377.18Z" style="fill:#37474f"></path>
  </g>
  <g id="freepik--Number--inject-54">
    <path d="M172.92,173.81a11.5,11.5,0,0,1-11.69,11.48h-2.09v15.87a11.48,11.48,0,0,1-23,0V185.29H70.4a10.24,10.24,0,0,1-7.1-2.51,11.17,11.17,0,0,1-1.88-16.07l77.26-96.06c.21,0,.21-.2.42-.41a2.9,2.9,0,0,0,.63-.84,2.26,2.26,0,0,0,1-.62c.21-.21.63-.42.83-.63a2.25,2.25,0,0,1,1.26-.42c.2-.42.41-.62.83-.62.21-.21.63-.21,1.26-.42a1.25,1.25,0,0,0,.83-.21h3.55a1.88,1.88,0,0,0,1,.21c.21.21.84.21,1.26.42.21,0,.62.2.83.2.42.42.84.63,1,.84.42.21.63.42,1.05.63a.21.21,0,0,1,.21.21c.21,0,.63.2.63.41l.83.84c.21.21.42.62.63.83a5.85,5.85,0,0,1,.83,1.05,1.57,1.57,0,0,0,.42.83,8.76,8.76,0,0,1,.42,1.26c0,.2.2.62.2.83a2.25,2.25,0,0,1,.21,1.25c0,.42.21.63.21,1v85h2.09A11.63,11.63,0,0,1,172.92,173.81Zm-36.74-63.06L94.62,162.32h41.56Z" style="fill:#BBBBBB"></path>
    <path d="M195.45,139.56c.21-19.21,5-36.54,14.2-49.9,8.76-13.37,22.34-23.18,38.83-23.18,16.08,0,29.86,9.81,38.64,23.18,9,13.36,14,30.69,14,49.9,0,19-5,36.54-14,49.91-8.78,13.15-22.56,23.17-38.64,23.17-16.49,0-30.07-10-38.83-23.17C200.46,176.1,195.66,158.56,195.45,139.56Zm82.47,0c0-15-4.17-28.19-10-37.17-6-8.77-12.94-12.94-19.42-12.73-6.47-.21-13.57,4-19.83,12.73-5.85,9-10,22.14-10,37.17,0,14.83,4.18,28.19,10,37,6.26,9,13.36,12.95,19.83,12.95s13.37-4,19.42-12.95C273.75,167.75,277.92,154.39,277.92,139.56Z" style="fill:#BBBBBB"></path>
    <path d="M433.19,173.81a11.5,11.5,0,0,1-11.7,11.48H419.4v15.87a11.48,11.48,0,1,1-23,0V185.29H330.66a10.24,10.24,0,0,1-7.1-2.51,11.17,11.17,0,0,1-1.88-16.07l77.26-96.06c.21,0,.21-.2.42-.41a2.9,2.9,0,0,0,.63-.84,2.26,2.26,0,0,0,1-.62c.21-.21.63-.42.84-.63a2.19,2.19,0,0,1,1.25-.42c.2-.42.41-.62.83-.62.21-.21.63-.21,1.26-.42a1.25,1.25,0,0,0,.83-.21h3.55a1.88,1.88,0,0,0,1,.21c.21.21.84.21,1.26.42.21,0,.63.2.83.2.42.42.84.63,1,.84.42.21.63.42,1.05.63A.21.21,0,0,1,415,69c.21,0,.63.2.63.41l.83.84c.21.21.42.62.63.83a5.42,5.42,0,0,1,.83,1.05,1.57,1.57,0,0,0,.42.83,8.76,8.76,0,0,1,.42,1.26c0,.2.2.62.2.83a2.25,2.25,0,0,1,.21,1.25c0,.42.21.63.21,1v85h2.09A11.63,11.63,0,0,1,433.19,173.81Zm-36.75-63.06-41.56,51.57h41.56Z" style="fill:#BBBBBB"></path>
  </g>
</svg>
